<svg xmlns="http://www.w3.org/2000/svg" width="24" height="18" viewBox="0 0 24 18">
  <g id="o-email" transform="translate(0 -59.737)">
    <g id="Grupo_23598" data-name="Grupo 23598" transform="translate(0 59.737)">
      <g id="Grupo_23597" data-name="Grupo 23597" transform="translate(0 0)">
        <path id="Caminho_9056" data-name="Caminho 9056" d="M315.885,76.385l-9.154,8.528,9.251,7.794a1.984,1.984,0,0,0,.371-1.152v-13.9A1.979,1.979,0,0,0,315.885,76.385Z" transform="translate(-292.353 -75.605)" fill="#2d333b"/>
        <path id="Caminho_9057" data-name="Caminho 9057" d="M29.053,68.98l.319.3a1.761,1.761,0,0,0,2.392,0L41.483,60a2.051,2.051,0,0,0-.992-.264H20.645a2.067,2.067,0,0,0-1.164.358l9.57,8.884Z" transform="translate(-18.568 -59.737)" fill="#2d333b"/>
        <path id="Caminho_9058" data-name="Caminho 9058" d="M.35,79.5A1.982,1.982,0,0,0,0,80.624v13.9a1.978,1.978,0,0,0,.334,1.094L9.611,87.89Z" transform="translate(0 -78.575)" fill="#2d333b"/>
        <path id="Caminho_9059" data-name="Caminho 9059" d="M31.822,274.648l0,0h0l0,0a2.557,2.557,0,0,1-2.209.638c-.051-.009-.1-.03-.15-.042a2.122,2.122,0,0,1-.729-.3l0,0a2.55,2.55,0,0,1-.39-.3l-.058-.054-9.312,7.95a2.061,2.061,0,0,0,1.189.378H40a2.061,2.061,0,0,0,1.131-.339L31.871,274.6Z" transform="translate(-18.074 -264.928)" fill="#2d333b"/>
      </g>
    </g>
  </g>
</svg>
