<?xml version="1.0" encoding="iso-8859-1"?>
<!-- Generator: Adobe Illustrator 19.0.0, SVG Export Plug-In . SVG Version: 6.00 Build 0)  -->
<svg version="1.1" id="Layer_1" xmlns="http://www.w3.org/2000/svg" xmlns:xlink="http://www.w3.org/1999/xlink" x="0px" y="0px"
	 viewBox="0 0 512 512" style="enable-background:new 0 0 512 512;" xml:space="preserve">
<g>
	<g>
		<path d="M488.939,482.26l-54.875-128c-3.354-7.844-11.063-12.927-19.604-12.927h-36.337l13.086-13.042
			C427.833,291.938,448,243.542,448,192C448,86.135,361.875,0,256,0S64,86.135,64,192c0,51.542,20.167,99.938,56.792,136.271
			l13.104,13.063H97.541c-8.542,0-16.25,5.083-19.604,12.927l-54.875,128c-2.833,6.594-2.146,14.167,1.792,20.146
			c3.958,5.99,10.646,9.594,17.813,9.594h426.669c7.167,0,13.854-3.604,17.813-9.594
			C491.084,496.427,491.772,488.854,488.939,482.26z M256,106.667c47.063,0,85.333,38.281,85.333,85.333
			S303.063,277.333,256,277.333S170.667,239.052,170.667,192S208.937,106.667,256,106.667z M75.02,469.333L111.603,384h65.096
			l71.78,71.552c2.063,2.073,4.792,3.115,7.521,3.115c2.729,0,5.458-1.042,7.521-3.115L335.313,384h65.084l36.583,85.333H75.02z"/>
	</g>
</g>
<g>
</g>
<g>
</g>
<g>
</g>
<g>
</g>
<g>
</g>
<g>
</g>
<g>
</g>
<g>
</g>
<g>
</g>
<g>
</g>
<g>
</g>
<g>
</g>
<g>
</g>
<g>
</g>
<g>
</g>
</svg>
